<svg width="386" height="630" viewBox="0 0 386 630" fill="none" xmlns="http://www.w3.org/2000/svg">
<path id="KR-11" class="land" d="M133.184 127.727L136.984 131.544L137.744 136.937L138.871 137.365L141.281 136.115L144.374 141.934L146.181 141.211L149.772 141.605L153.939 139.303L157.004 139.008L157.686 141.934L161.329 139.862L164.315 139.6L165.994 138.023L165.967 136.872L167.225 136.576L168.509 134.866L167.33 133.78L167.723 131.281L170.918 129.142L169.478 125.587L164.683 127.76L163.136 127.332L164.551 121.998L162.481 117.288L162.375 112.772L160.281 111.487L155.328 111.289L153.152 112.806L151.527 115.575L151.45 118.573L150.348 119.364L145.212 119.759L143.588 124.271L139.971 125.883L134.913 122.69L132.739 126.147L133.184 127.727Z" fill="#CCCCCC" stroke="white" stroke-width="0.5"/>
<path id="KR-26" class="land" d="M361.096 381.752L361.14 382.514H365.106L366.443 383.852L367.446 385.523L367.279 387.029L365.778 388.117L364.939 393.135L363.079 394.125L364.679 394.317L364.992 395.946L363.577 398.979L362.606 398.468L362.003 399.873L362.79 401.246L362.239 402.97L359.907 403.641L359.331 405.843L358.203 406.546L356.553 405.939L355.268 406.864L353.618 405.78L353.722 406.578L352.098 406.801L351.495 408.875L352.517 409.033L353.04 410.533L352.909 413.148L351.731 412.51L349.818 412.829L349.502 412.445L347.564 412.19L347.774 410.213L347.066 409.766L345.284 411.074L343.581 413.753L343.371 415.538L342.559 415.635L343.239 417.069L342.533 418.215L341.432 414.646L340.358 414.836L341.274 418.692L340.332 419.108L340.174 417.641L339.206 417.29L339.414 418.947L338.26 418.819L338.944 419.743L337.765 420.572L337.869 418.819L337.137 418.437L336.324 415.123L336.875 412.094L334.805 414.517L334.727 411.648L332.76 415.251H331.111L332.132 410.724L331.082 410.342L330.113 415.251L325.684 414.741L324.191 413.115L321.256 415.284L320.496 414.39L322.329 412.861L321.071 413.051L321.385 410.732L328.3 408.123L328.729 403.124L331.016 402.837L334.873 400.409L339.016 400.266L343.07 395.333L347.013 392.857L348.846 393.173L352.446 386.548L357.304 385.977L357.876 384.119L360.819 381.414L361.096 381.752ZM346.621 412.573L348.481 414.168L348.193 415.794L350.132 417.42L349.633 418.503H348.742L348.271 417.323L347.642 417.58L347.065 416.304L343.947 414.009L346.621 412.573Z" fill="#CCCCCC" stroke="white" stroke-width="0.5"/>
<path id="KR-27" class="land" d="M297.086 350.447L295.773 354.706L294.427 355.622L292.012 354.732L290.492 355.107L287.008 357.599L284.6 357.658L283.867 354.237L279.819 349.254L280.13 346.452L283.556 348.32H285.735L286.358 345.829L283.245 342.403L284.49 339.289L285.735 336.487L291.03 335.553L290.718 333.684L287.916 331.503L283.245 331.193L284.801 325.276L286.981 322.162L291.03 320.292L291.652 325.899H294.144L297.569 317.801L303.486 316.556L306.289 313.442L309.715 312.507L312.828 312.819L316.564 315.933L317.188 323.407L319.057 327.455L318.122 329.636L314.697 330.88L313.141 334.306V337.42L310.649 337.732V339.601L311.895 341.158V345.206L308.469 346.452L306.912 348.32L304.109 348.008L303.486 345.206H300.372L298.192 346.452L296.635 348.943L297.086 350.447Z" fill="#CCCCCC" stroke="white" stroke-width="0.5"/>
<path id="KR-28" class="land" d="M113.164 124.194L117.301 121.484L119.41 118.646L121.482 118.838L128.922 124.859L132.739 126.148L133.183 127.729L129.646 132.265L129.776 136.282L133.078 139.175L132.633 142.954L130.85 145.275L128.855 144.684L129.327 142.877L128.646 142.351L128.253 144.027L127.65 141.694L128.096 144.684L126.131 146.95L122.567 146.458L118.899 151.086L114.313 151.218L113.972 152.301L112.976 152.269L113.815 152.005L114.338 150.167L118.898 150.988L122.488 146.49L118.452 143.336L117.509 139.065L117.011 141.366L115.544 141.267L115.728 138.671L114.915 139.953L113.71 139.46L114.915 134.825L117.903 133.641L119.134 134.036L118.216 132.359L115.805 133.477L115.858 132.161L114.836 131.076L115.805 131.175L115.648 129.925L114.417 128.674L115.098 128.378L115.151 126.963L112.373 128.608L111.377 128.444L111.272 128.378L115.177 126.765L113.164 124.194ZM87.217 125.807L89.05 127.058L89.916 126.794L91.331 128.802L94.291 128.374L94.03 129.822L91.986 129.395L90.126 130.02L89.732 129.46L88.711 130.415L89.078 128.31L87.217 125.807ZM106.819 128.967L107.552 130.152L111.116 131.139L112.504 132.454L112.924 134.296L110.671 135.71L108.679 135.052L99.821 142.414L96.965 142.973L97.305 141.002L96.362 140.345L95.131 141.166L96.022 140.246L95.551 139.523L93.953 140.772L92.328 139.95L93.192 139.325L91.647 137.549L91.882 136.169L93.533 136.136L97.464 133.342L103.019 133.079L104.356 132.125L105.037 129.427L106.819 128.967ZM96.991 143.598L99.77 146.489L98.93 148.623L97.359 149.05L96.415 148.131L96.52 146.194L95.34 145.898L96.231 143.467L96.991 143.598Z" fill="#CCCCCC" stroke="white" stroke-width="0.5"/>
<path id="KR-29" class="land" d="M148.75 396.838L146.924 395.97L144.491 395.883L140.059 397.882L138.06 399.967L136.582 400.054L133.019 397.967L132.411 395.795L130.238 395.708L128.151 401.01L125.805 400.923L124.067 403.009L122.937 407.789L123.372 411.875L130.585 412.916L134.323 419.001H138.06L141.449 417.002H145.273L146.751 415.959L149.879 416.568L153.269 414.221L154.66 412.397L156.398 406.312V404.921L154.312 403.965L151.705 403.705L150.687 399.173L148.75 396.838Z" fill="#CCCCCC" stroke="white" stroke-width="0.5"/>
<path id="KR-30" class="land" d="M190.754 255.207L191.998 260.495L192.306 260.665L193.768 258.306L194.377 257.659L195.76 257.839L195.438 259.143L195.37 259.78L198.228 257.388L200.72 259.878L200.958 262.497L203.381 263.651L203.064 265.274L205.08 267.664L202.276 269.533L201.342 275.138L200.096 281.366L201.262 285.105L197.917 287.283L195.737 290.085L192 287.906L189.82 284.169L189.197 280.743H187.64L187.329 288.839L186.395 291.02H185.149L184.215 287.906L181.723 286.971L180.167 284.791L179.854 281.366L177.675 279.497L177.363 275.45L179.543 272.957L179.232 264.238L186.083 262.058L187.037 255.941L190.754 255.207Z" fill="#CCCCCC" stroke="white" stroke-width="0.5"/>
<path id="KR-31" class="land" d="M360.297 346.026L362.095 347.493L365.073 348.387L365.31 349.211L364.885 352.048L365.901 353.154L367.873 353.803L373.229 351.416L381.349 353.558L384.239 353.967L384.934 355.416L384.906 356.795L383.78 357.566L384.305 360.708L383.65 363.114L382.522 363.626L383.282 363.722L383.099 365.292L381.893 365.806L382.89 366.542L381.631 367.151L383.124 367.856L382.103 369.041L381.107 368.625L379.299 369.908L379.456 367.441L378.304 366.542L377.674 363.594L375.735 361.477L374.241 360.997L376.547 363.337L376.469 364.459L377.438 364.715L377.779 366.158L375.421 366.287L375.943 366.992L376.913 366.734L377.806 368.305L375.211 371.54L372.983 369.843L373.743 372.853L374.896 372.789L374.397 373.783L375.761 373.045V374.647L374.189 375.863L375.316 377.592L373.506 380.504L375.289 382.998L373.796 383.864L372.616 383.383L370.6 386.453L369.524 386.517L369.261 387.7L367.277 387.029L367.446 385.522L366.442 383.852L365.105 382.514H361.14L361.096 381.752L359.555 379.872L356.474 379.663L350.824 373.806L347.571 370.458L345.175 370.25H342.437L340.209 369.204L339.868 364.388L342.094 362.503L343.292 361.456V359.991L341.826 357.569L345.74 354.487L347.396 354.313L348.723 353.58L347.372 351.105L347.744 349.551L354.997 345.959L360.297 346.026Z" fill="#CCCCCC" stroke="white" stroke-width="0.5"/>
<path id="KR-41" class="land" d="M79.042 102.799L77.233 100.719L78.754 99.0677L78.963 96.7897L80.534 95.3037H83.181L86.221 97.0537L88.606 96.3937L89.681 97.5817L87.978 100.356L86.012 101.544L83.392 101.214L81.164 101.808L80.116 103.227L79.042 102.799ZM88.711 161.647L85.278 159.876L84.203 161.122L88.187 163.22L90.257 162.696L90.991 161.484L89.628 160.96L88.711 161.647ZM82.054 114.805L78.936 114.706L82.658 118.561L82.998 118L81.871 117.177L82.054 114.805ZM70.184 162.303L69.267 162.926L68.507 160.073L67.407 159.909L65.886 165.908L67.143 165.712L67.327 164.925L67.721 166.203L68.874 165.842L68.717 167.284L72.098 166.76L73.697 164.893L70.421 162.861L70.184 162.303ZM74.927 112.135L73.879 111.772L72.647 112.663L73.826 113.389L74.979 112.894L75.844 114.377L77.704 114.707L77.993 113.256L76.552 110.75L74.927 112.135ZM153.915 45.2727L149.025 51.0757H146.222L141.551 49.2067L139.059 50.7637L133.454 55.4347L130.028 60.4177L131.897 61.3517L133.765 65.0887L140.061 65.3777L143.419 67.2687L144.042 70.3827L142.797 71.3167L142.485 73.1857L137.503 72.5627L137.191 76.2997L135.633 77.2347L135.945 79.7257L137.813 80.6597L137.502 87.1997L135.321 88.4457L132.207 84.7087L133.453 80.3487L131.498 77.8847L129.1 77.9567L128.782 80.6607L126.913 82.5297L123.445 79.1947L122.705 79.3017L123.6 84.1937L123.115 86.0587L127.846 87.8227L131.272 92.8057L124.732 94.6737H121.902L120.943 99.2107L117.945 99.3857L114.878 101.845L111.322 101.317L109.304 99.7127L108.702 100.884L106.947 101.676L108.047 103.426L107.182 107.649L108.257 109.431L107.759 112.53L108.912 113.057L108.152 114.771L110.799 121.097L113.161 124.193L117.298 121.483L119.407 118.645L121.479 118.837L128.919 124.858L132.735 126.148L134.909 122.691L139.967 125.884L143.585 124.272L145.209 119.76L150.345 119.365L151.448 118.574L151.525 115.575L153.15 112.806L155.325 111.289L160.278 111.486L162.373 112.772L162.479 117.288L164.549 121.998L163.134 127.332L164.68 127.76L169.475 125.587L170.916 129.142L167.72 131.281L167.327 133.78L168.506 134.866L167.222 136.576L165.964 136.873L165.991 138.023L164.313 139.6L161.326 139.863L157.683 141.934L157.002 139.009L153.937 139.304L149.77 141.606L146.178 141.212L144.371 141.935L141.278 136.117L138.868 137.367L137.742 136.939L136.982 131.545L133.182 127.729L129.645 132.265L129.775 136.281L133.077 139.174L132.632 142.953L130.849 145.274L132.078 145.865L128.121 145.11L127.23 146.161L128.043 146.785L127.65 148.296L122.959 150.922L123.248 152.432L115.779 154.992L112.845 157.223L111.927 156.96L112.399 157.944L111.115 159.321L108.232 157.944L111.115 161.977L110.773 164.042L108.965 165.156L110.407 166.63H109.201L109.489 167.482L108.415 168.563L110.065 167.875L111.087 169.447L112.921 166.073L115.935 167.613L116.721 164.303L116.983 165.942L118.975 167.187L118.451 168.891L119.027 169.513L119.814 167.187L119.473 165.549L116.852 164.205L116.223 161.517L114.022 161.124L111.899 159.124L112.921 157.32L116.118 155.09L122.591 152.859L131.946 157.386L135.038 156.993L137.789 160.272L139.047 159.846L138.051 161.617L136.478 159.617L134.565 159.125L134.722 158.207L133.831 158.535L133.491 159.322L134.434 160.601L132.521 160.502L133.254 162.24L132.337 163.093L132.992 163.289L130.764 166.631L129.454 165.747L130.03 165.059L129.427 162.044L126.781 162.896L126.44 161.814L122.876 161.06L122.143 162.895L120.439 163.256L120.832 164.993L121.75 165.583L120.807 167.32L121.776 168.86L120.361 168.893L119.208 170.367L120.387 172.954L119.314 173.904L120.808 173.281L123.245 173.772L121.017 175.9L122.301 176.718L122.118 178.485L122.956 179.271L123.35 177.667L126.704 175.769L128.774 172.364L131.316 172.593L132.705 170.464L133.648 172.855L131.499 174.165L136.164 174.231L134.093 174.819L135.011 175.835L134.198 175.475L132.836 176.785L131.787 176.064L129.77 177.995L129.822 185.06L128.25 187.806L128.617 188.591L132.914 188.918L133.202 191.009L131.866 191.434L131.918 192.25L135.822 193.067L137.447 197.214L139.359 197.998L139.805 199.859L141.744 199.533L143.159 200.447L144.023 204.997L147.474 202.924L155.01 204.682L159.939 202.913L162.942 200.848L165.521 200.764L168.504 202.187L171.785 205.563L176.87 206.26L179.629 206.029L183.402 204.33L185.103 203.095L187.309 203.231L189.101 201.486L189.266 199.382L188.964 198.299L194.042 195.296L194.841 192.673L197.175 190.108L197.976 191.296L199.456 191.274L199.184 193.339L200.779 190.121L205.073 190.901L209.121 187.164L211.612 186.853L212.235 179.068H213.792L215.349 180.937H217.218L219.875 174.303L222.518 173.721L223.135 166.3L222.512 162.874L224.07 161.629L223.758 154.155L227.184 146.058L227.496 142.01L225.547 141.301L224.762 138.925L227.893 134.901L229.953 134.2L230.745 132.021L229.097 129.126L220.146 127.763L215.847 124.076L213.163 123.752L209.058 121.278L205.426 122.676L202.792 119.838L204.537 116.332L204.847 111.953L201.264 112.854L201.384 110.834L204.077 107.762L202.759 104.264L203.583 102.307L202.736 99.3647L203.325 97.8427L205.582 97.0927L207.377 95.0317L210.681 93.9607L211.679 90.0017L210.863 85.9757L209.422 84.3897L205.226 82.9727L205.143 80.2757L204.264 79.6737L201.052 80.0157L197.964 78.4907L196.41 75.4737L196.008 67.9727L194.587 66.0037L192.633 67.0467L190.545 65.4997L189.062 65.6947L184.964 67.6237L180.505 64.0457L180.987 58.7337L182.078 57.8157L180.111 56.9387L176.457 60.6747L174.026 60.8367L172.386 60.0077L171.992 56.8237L171 57.1337L170.821 56.0597L171.444 54.1917L169.886 52.9457L168.952 47.6517H164.281V45.7837L165.526 44.8487L160.797 40.4407L159.472 41.0187L153.915 45.2727ZM92.721 109.926L90.231 109.563L88.134 107.914L88.108 105.605L89.13 103.526L88.213 102.965L84.989 104.284L84.91 107.683L83.39 108.244L87.976 111.41L89 112.86L88.737 114.937L89.812 115.991L93.376 113.255L93.769 111.211L92.721 109.926ZM108.26 113.586L106.793 112.234L107.579 109.068L106.426 107.353L107.659 103.624L106.295 101.941L105.955 99.6627L101.448 96.7237L99.299 93.9497L95.368 94.6767L94.53 96.6917L91.045 98.5737L91.569 108.639L94.556 109.431L96.522 114.014L95.657 116.387L92.487 116.98L93.64 119.055L93.063 119.846L96.338 121.79L101.684 122.152L101.711 121.131L102.602 121.56L103.179 120.638L106.323 121.56L107.135 119.913L108.499 119.517L107.319 114.805L108.26 113.586ZM102.73 157.975L100.792 158.401L100.608 159.68L99.063 159.549L98.355 161.058L99.168 163.025L98.828 164.893L100.714 164.86L100.767 165.777L101.396 165.712L102.732 164.597L102.471 163.745L103.99 163.647L102.837 162.336L104.095 162.303L103.886 161.549L104.881 162.271L105.563 160.304L104.252 158.599L102.73 157.975Z" fill="#CCCCCC" stroke="white" stroke-width="0.5"/>
<path id="KR-42" class="land" d="M280.637 0.374725L282.052 3.18073L284.201 5.91772L284.776 5.75072L285.563 7.48572L285.014 8.75372L286.769 11.0887L286.192 12.3907L287.345 13.3917L287.188 14.8577L290.883 19.7247L289.756 20.2247L289.705 21.9237L295.207 29.5167L294.578 29.9487L294.84 31.6127L296.438 33.8427L296.412 35.3067L298.719 37.3017L299.556 42.9197L303.541 48.1027L302.727 49.2317L304.746 51.9547L303.829 52.9507L304.746 56.9997L310.326 63.5667L311.035 66.5827L315.069 70.8907L316.17 70.9897L315.672 72.8777L319.42 79.0367L321.099 80.2267L321.019 81.2867L325.107 85.0237L325.028 87.5047L329.404 92.5287L329.64 93.9817L346.568 112.432L345.363 117.079L347.748 120.308L352.229 123.997L352.596 125.807L351.653 127.749L353.592 132.914L358.753 138.208L359.854 143.236L364.678 146.98L366.38 153.841L368.213 155.449L369.235 155.351L369.708 157.876L371.359 157.942L372.171 159.024L371.909 160.828L374.713 164.237L373.245 165.351L373.953 167.121L373.113 169.512L373.664 172.1L376.391 176.028L376.074 177.206L376.889 178.041L372.619 178.755L370.752 180.935L368.26 181.87L365.457 184.361L363.9 186.54V187.786L365.457 190.589L358.936 190.75L356.282 188.483L353.337 187.454L350.731 187.057L348.188 189.567L340.774 186.957L337.435 187.672L336.757 186.351L335.038 185.669L332.136 189.966L331.202 191.211H327.154L320.925 186.852L318.911 187.036L318.369 191.743L317.258 192.859L314.196 191.488L312.282 191.743L308.039 189.411L305.665 187.277L302.18 187.487L298.23 186.213L294.651 183.305L292.646 183.215L288.42 184.216L286.538 184.684L285.722 183.289L283.929 181.647L284.034 179.031L283.071 178.223L281.617 178.549L278.339 178.409L277.151 179.662L275.188 180.319L274.496 180.788L272.186 179.023L271.526 177.33L274.784 175.309L277.132 172.586L277.238 171.223L275.685 170.696L274.323 171.527L273.273 171.791L271.565 171.561L270.094 169.83L267.974 169.397L265.995 167.891L263.544 168.478L261.758 170.922L258.113 170.014L254.445 173.088L249.378 173.946L249.106 170.105L247.332 166.805L243.074 166.364L241.579 167.306L238.742 169.987L239.735 174.667L239.314 176.465L236.167 178.563L233.844 177.412L230.815 177.506L229.37 179.378L227.19 180.312L223.141 177.198L222.524 173.72L223.141 166.298L222.518 162.872L224.076 161.627L223.764 154.154L227.19 146.057L227.501 142.009L225.552 141.299L224.768 138.923L227.898 134.899L229.958 134.198L230.751 132.019L229.103 129.124L220.152 127.761L215.853 124.074L213.169 123.75L209.064 121.276L205.432 122.674L202.798 119.836L204.542 116.33L204.853 111.951L201.27 112.852L201.39 110.832L204.083 107.76L202.764 104.262L203.588 102.306L202.741 99.3627L203.33 97.8407L205.587 97.0917L207.382 95.0307L210.687 93.9597L211.685 89.9997L210.869 85.9747L209.427 84.3877L205.231 82.9707L205.148 80.2737L204.269 79.6717L201.056 80.0137L197.968 78.4887L196.414 75.4717L196.012 67.9707L194.591 66.0017L192.637 67.0447L190.548 65.4977L189.065 65.6927L184.967 67.6217L180.507 64.0437L180.99 58.7327L182.081 57.8137L180.113 56.9367L176.459 60.6727L174.028 60.8347L172.388 60.0057L171.995 56.8227L171.003 57.1317L170.824 56.0577L171.447 54.1897L169.889 52.9437L168.956 47.6497H164.285V45.7817L165.53 44.8467L160.801 40.4377L164.835 37.1927L168.194 37.5727L174.872 34.5187L178.281 35.0417L179.879 36.2327L183.065 36.1177L184.201 35.1767L190.203 34.0557L199.417 38.0447L207.639 33.8187L210.237 35.2517L214.016 34.8437L216.674 35.5127L218.627 34.2007L224.404 34.4907L226.939 33.0977L230.596 37.6887L234.517 36.5817L236.625 34.3467L242.905 36.1837L244.682 35.7477L251.117 37.1847L254.076 36.7257L257.05 34.2917L260.383 34.0177L267.162 28.6157L268.449 26.5087L273.969 21.6757L276.128 17.0817L276.941 12.4987L276.415 3.43472L280.637 0.374725Z" fill="#CCCCCC" stroke="white" stroke-width="0.5"/>
<path id="KR-43" class="land" d="M213.488 306.601L211.308 300.363L209.127 298.494L208.816 295.692L210.062 292.888L209.75 289.774L207.882 286.661L205.088 286.926L201.262 285.105L200.096 281.367L201.342 275.138L202.276 269.533L205.08 267.664L203.064 265.274L203.381 263.651L200.958 262.497L200.72 259.878L198.228 257.388L195.37 259.78L195.438 259.143L195.76 257.839L194.377 257.659L193.768 258.306L192.306 260.665L191.998 260.495L190.754 255.207L187.037 255.941L186.421 255.081L185.315 255.262L184.738 256.043L186.6 249.958L185.521 248.817L186.44 245.542L183.108 245.346L182.657 243.997V241.194L179.854 237.768L182.035 237.145L182.346 234.342L180.789 232.163L185.772 224.378L189.509 224.689L191.066 222.82L189.82 219.083L186.706 216.904H183.832L182.754 216.426L182.915 214.435L182.326 213.949L180.846 213.242L180.616 210.588L177.784 208.673L176.876 206.258L179.636 206.027L183.409 204.328L185.109 203.093L187.315 203.229L189.107 201.484L189.272 199.38L188.97 198.297L194.048 195.294L194.847 192.671L197.181 190.106L197.981 191.294L199.462 191.273L199.19 193.338L200.785 190.12L205.08 190.901L209.127 187.164L211.619 186.852L212.242 179.067H213.799L215.356 180.935H217.225L219.881 174.302L222.524 173.72L223.141 177.198L227.19 180.312L229.37 179.378L230.814 177.506L233.844 177.412L236.167 178.563L239.314 176.465L239.735 174.667L238.742 169.987L241.579 167.306L243.074 166.364L247.332 166.805L249.106 170.105L249.378 173.946L254.445 173.088L258.113 170.014L261.758 170.923L263.544 168.479L265.995 167.891L267.974 169.397L270.094 169.83L271.565 171.561L273.273 171.791L274.323 171.527L275.685 170.696L277.238 171.223L277.132 172.586L274.784 175.309L271.526 177.33L272.186 179.023L274.496 180.788L275.188 180.319L277.151 179.662L278.339 178.409L281.617 178.549L283.071 178.224L284.034 179.031L283.929 181.647L285.722 183.289L286.537 184.685L288.42 184.216L292.646 183.215L294.651 183.305L298.23 186.213L302.18 187.487L305.665 187.277L308.039 189.411L305.839 191.565L303.698 191.319L301.426 193.927L300.81 194.207L297.526 197.45L294.729 198.257L293.945 199.498L290.405 202.24L287.254 207.897L286.422 209.459L286.37 210.79L287.682 211.399L288.475 214.307L285.637 218.196L281.65 218.975L280.726 220.003L278.291 219.952L276.102 220.132L273.615 215.218L270.383 213.374L269.204 211.406L267.539 214.447L266.41 214.79L265.965 218.017L265.6 218.583L259.908 216.847L259.488 216.219L258.426 215.843L257.816 216.467L255.287 219.552L253.911 219.742L252.276 217.997L251.77 218.302L248.91 224.977L252.297 230.213L247.706 229.305L246.528 228.641L245.323 229.226L242.015 227.598L239.146 231.323L234.903 232.743L233.223 235.114L233.705 237.331L230.477 240.663L228.723 242.212L227.163 242.564L226.175 244.468L226.902 245.564L232.257 246.693L233.473 247.911L233.331 248.839L234.294 250.805L236.297 252.164L235.876 253.867L233.864 254.758L233.057 262.369L233.652 264.839L232.372 266.851L233.685 270.098L234.179 270.405L233.18 272.962L230.524 275.265L230.455 279.542L232.604 281.318L236.012 278.762L236.475 280.204L238.969 281.68L240.816 283.249L241.988 283.645L243.972 282.81L246.2 282.023L248.216 282.718L248.835 283.786L248.986 286.949L250.243 288.818L249.649 290.096L246.534 288.689L244.131 290.112L242.951 291.85L244.125 294.803L243.715 298.369L241.963 299.829L240.926 304.458L239.089 307.051L236.22 306.955L235.139 308.026L232.404 310.589L229.514 308.311L224.534 310.707L224.176 311.609L221.578 311.613L221.424 310.697L219.724 309.656L215.634 308.244L214.583 305.977L213.488 306.601Z" fill="#CCCCCC" stroke="white" stroke-width="0.5"/>
<path id="KR-44" class="land" d="M92.065 269.214L93.008 269.927L92.222 270.025L92.117 270.931L90.807 270.315L90.335 270.996L90.1 269.603L91.173 268.858L91.199 267.53H91.855L92.065 269.214ZM95.523 260.789H96.729L96.887 261.956L98.354 262.442L97.777 261.081L99.062 260.076L98.799 257.935L96.441 256.183L97.436 254.755L96.572 253.328L96.729 251.511L95.629 251.835L95.969 249.823L93.742 248.59L94.554 247.713L93.533 246.35L93.429 243.102L91.961 242.419L93.481 241.444L93.534 240.307L92.564 237.706L91.227 237.089L87.507 240.859L89.158 244.238L88.843 249.433L89.734 251.478L88.659 254.366L90.022 253.977L89.394 257.318L91.832 257.707L91.281 259.589L93.01 261.112L93.979 260.01L95.893 260.042L95.523 260.789ZM100.503 186.888L100.004 184.796L97.646 184.403L97.698 187.183L100.503 186.888ZM99.481 265.261L98.853 264.127L97.831 264.029L96.888 264.483L97.412 265.909L94.896 264.515L94.188 266.135L96.048 265.973L101.316 267.723L101.473 266.784L98.748 266.039L99.481 265.261ZM211.308 300.363L209.128 298.494L208.816 295.692L210.062 292.888L209.75 289.774L207.881 286.661L205.088 286.927L201.261 285.106L197.915 287.284L195.736 290.087L192 287.906L189.82 284.17L189.197 280.743H187.64L187.328 288.84L186.394 291.021H185.148L184.214 287.907L181.722 286.972L180.165 284.792L179.853 281.366L177.673 279.498L177.361 275.45L175.658 273.398L173.909 272.052L172.698 268.958L172.832 264.922L172.563 262.097L171.218 258.196L168.527 256.716L166.644 254.16L166.509 252.141L167.586 249.72V246.625L167.451 243.127L167.182 239.764L167.854 237.343L167.585 234.248L167.046 232.23L165.97 230.212L166.373 228.463L169.064 227.386L171.62 228.193L173.1 229.807L175.791 231.422L178.347 232.364L180.785 232.161L185.767 224.376L189.504 224.688L191.061 222.819L189.816 219.082L186.702 216.902H183.827L182.749 216.424L182.91 214.433L182.321 213.946L180.841 213.239L180.612 210.585L177.779 208.67L176.871 206.255L171.786 205.558L168.505 202.182L165.522 200.759L162.943 200.843L159.94 202.908L155.011 204.677L147.475 202.919L144.024 204.992L139.543 206.055L135.98 205.403L134.486 200.41L133.36 200.019L131.683 196.133L131.761 194.761L124.266 192.736L123.899 191.951L117.557 191.722L110.769 187.671L108.568 187.311L107.022 185.055L105.004 184.336L104.113 184.99L103.405 186.363L103.93 186.919L101.335 189.338L102.331 191.233L101.073 191.886L98.4 190.546L94.444 190.154L92.347 191.199L91.534 190.676L89.569 192.343L88.861 191.983L89.176 193.813L92.321 194.532L93.133 194.041L93.579 195.282L94.575 195.446L92.924 196.785L92.217 195.675H89.753L89.544 196.752L90.986 196.589L91.168 197.732L92.086 197.895L91.902 199.233L92.845 198.319L94.025 198.581L94.89 200.409L96.567 199.071L97.484 199.496L97.51 200.997L96.2 201.617L96.54 202.76L98.689 203.576L95.387 204.555L95.544 206.088L93.605 205.828L92.374 206.545L92.977 208.763L91.536 210.002L92.427 211.861L90.357 210.035L90.776 208.339L89.178 208.045L88.052 210.719L89.021 211.469L88.732 212.642L89.597 213.784L88.47 213.23L87.606 214.11L86.846 213.686L86.82 214.727L85.877 214.664L85.484 215.772L84.515 213.426L84.75 212.676L87.79 211.763L87.947 211.079L85.85 210.623L85.929 209.449L87.579 205.796L89.335 204.85H88.365L88.182 203.251L86.531 201.782V198.551L87.475 197.245L86.479 197.344L85.667 196.299L86.688 196.038L86.871 194.471L84.539 196.267L85.586 201.392L84.748 202.698L85.115 203.775L81.42 202.698L81.865 202.012L80.397 202.11L78.04 204.003L77.123 203.22L76.625 205.471L74.763 205.34L76.1 206.548L75.208 207.233L75.89 208.929L76.886 208.864L74.815 211.603L76.23 213.168L75.13 213.266L76.755 217.6L74.842 213.917L74.16 214.438L74.213 210.722L73.191 210.658L73.112 209.581L72.64 210.331L72.012 210.038L72.588 211.081L71.671 211.114L72.955 212.32L72.772 213.494L71.461 214.504L72.195 215.155L71.776 216.719L70.727 217.566L70.308 217.045L70.334 218.316L68.525 218.674L69.731 221.475H70.596L69.233 226.391L72.325 223.721L71.172 220.042L72.719 220.888L76.257 220.628L75.235 221.963L77.148 223.037L78.38 222.452L77.122 224.795L78.17 224.144L79.061 224.795L77.515 226.716L73.952 225.186L72.117 226.651L72.668 229.938L76.573 230.328L77.646 228.018L79.953 227.791L80.581 226.978L80.267 225.155L82.364 225.253L84.224 223.722L84.618 224.471L83.806 224.764L83.726 226.978L82.6 228.345L82.915 230.493L85.09 230.785L86.163 233.095L86.294 236.249L85.246 236.997L84.695 239.922L85.717 241.645L92.373 235.892L96.671 237.127L101.676 240.67L102.41 243.691L101.756 245.38L104.113 248.271L105.607 247.003L109.747 249.99L105.555 247.75L103.536 249.861L103.301 253.268L103.851 256.058L105.083 257.355L104.82 258.555L107.44 257.226L107.755 255.83L108.542 255.766L111.058 252.489L113.495 253.496L115.723 252.717L114.726 253.949L112.027 253.496L111.346 256.253L109.852 256.156L108.332 257.647H107.075L104.689 259.301L103.772 261.214L103.354 264.423L105.136 264.455L109.853 267.727L113.103 268.408L110.508 268.18L106.446 270.998L105.162 271.096L109.722 277.991L107.993 281.129L108.884 285.625L107.39 287.241L107.574 289.471L106.815 290.441L104.456 290.214L104.429 292.96L105.504 293.929L105.793 291.538L106.972 291.215L109.593 292.153L110.51 293.995L111.899 292.605L114.441 294.802L115.777 297.74L116.59 297.029L117.638 297.514L117.612 298.35L118.791 298.03L116.354 299.968L117.403 299.775L117.691 302.583L118.739 302.487L120.993 305.067L120.233 305.551L120.285 307.679L121.018 308.422L122.145 307.809L126.416 308.873L127.806 306.712L128.488 307.039L129.792 306.482L131.271 307.838L142.793 302.855L142.796 294.429L147.476 291.754L151.153 292.423L154.91 294.688L156.174 294.309L158.364 296.316L158.676 300.053L161.106 300.244L161.638 302.261L164.184 302.444L169.847 300.344L172.69 302.233L177.984 301.921L177.36 299.43L181.72 299.742L184.135 297.73L185.267 299.354L188.225 304.447L190.44 311.575L195.349 310.018L196.045 315L202.585 314.688L203.519 312.82L203.676 310.619L204.702 310.437L206.586 309.438L210.681 311.886L213.484 309.082V306.602L211.308 300.363Z" fill="#CCCCCC" stroke="white" stroke-width="0.5"/>
<path id="KR-45" class="land" d="M128.491 307.037L129.795 306.48L131.274 307.836L142.797 302.853L142.8 294.427L147.479 291.752L151.157 292.421L154.914 294.686L156.177 294.307L158.367 296.314L158.679 300.051L161.109 300.243L161.641 302.259L164.187 302.442L169.85 300.342L172.693 302.231L177.987 301.919L177.363 299.428L181.723 299.74L184.137 297.728L185.27 299.352L188.228 304.445L190.443 311.573L195.352 310.016L196.048 314.998L202.588 314.687L203.522 312.819L203.679 310.618L204.706 310.436L206.589 309.437L210.685 311.885L213.488 309.081V306.601L214.583 305.977L215.634 308.244L219.724 309.656L221.424 310.697L221.578 311.613L224.176 311.609L224.534 310.707L229.514 308.311L232.404 310.588L235.139 308.026L239.846 316.982L238.561 321.985L236.24 323.496L234.198 328.108L231.099 329.989L229.64 329.997L227.817 331.145L225.806 330.706L225.157 331.178L223.502 335.247L218.573 339.974L217.792 344.787L217.638 346.699L216.747 347.495L211.536 361.875L211.706 364.187L214.473 365.557L214.895 368.458L216.162 370.725L215.478 374.059L216.167 375.983L217.796 376.41L217.341 380.41L213.646 383.969L212.492 387.111L213.041 389.973L210.829 392.273L210.6 392.477L204.236 388.024L199.702 385.949L197.709 386.058L195.958 387.04L193.013 390.827L191.266 391.289L188.078 390.926L185.7 391.623L179.559 391.642L178.434 390.988L176.997 389.618L175.07 390.737L171.921 389.385L170.624 390.218L169.661 391.117L166.634 392.202L164.539 391.664L161.953 389.693L162.371 386.088L161.363 383.217L159.288 382.549L160.348 380.243L159.892 375.837L158.544 374.8L156.034 374.723L155.054 376.506L154.057 377.147L153.388 380.244L152.366 380.937L150.398 380.369L146.848 374.713L142.813 371.73L139.795 371.123L138.229 372.986L137.147 372.771L135.623 372.416L133.361 373.395L132.568 375.38L132.132 379.146L130.531 380.773L130.792 381.542L130.168 384.507L127.761 385.725L124.627 386.687L123.1 388.18L121.029 388.887L120.066 388.461L117.972 388.574L116.524 390.114L112.182 390.345L111.807 388.648H110.098L108.852 384.6L106.984 382.42L106.05 376.815L104.181 375.257L102.313 374.635L98.486 374.134L103.595 364.33L104.958 365.613L105.193 364.042L106.976 362.888L109.177 363.818L111.405 361.734L113.947 362.055L114.182 363.305L115.702 359.747L116.253 359.906L116.2 358.687L117.641 358.271L119.239 358.752L121.703 361.798L121.388 358.528L120.419 357.95L121.572 356.891L120.183 356.923L118.139 355.223L117.851 356.089L116.383 355.866L115.597 356.795L114.365 355.833L113.947 356.603L109.046 356.571L107.893 357.662L106.976 357.597L106.635 356.603L106.059 357.662L104.355 356.923L103.254 354.903L102.023 355.48L101.289 353.843L102.338 351.951L101.08 350.923L105.377 348.483L108.706 344.917L110.54 343.729L111.693 344.339L114.182 342.219L117.248 337.977L116.54 333.669L117.589 332.06L119.449 332.993L124.062 332.285L128.543 333.476L130.639 335.211L131.975 338.235L132.657 337.591L131.426 337.237L132.028 334.955L131.346 332.06L122.594 327.073L124.035 325.591L127.232 324.369L132.526 324.594L133.442 323.468L133.521 321.374L136.431 319.957L132.264 320.086L130.613 321.729L127.809 321.439L125.661 322.211L122.411 321.213L121.048 322.437L115.885 322.147L116.069 315.608L111.535 315.124L111.509 314.029L109.623 312.546L110.356 311.644L115.256 311.289L116.409 312.289L117.117 311.451L122.829 310.644L124.48 309.418L127.363 310.547L129.066 308.677L129.381 307.355L128.491 307.037Z" fill="#CCCCCC" stroke="white" stroke-width="0.5"/>
<path id="KR-46" class="land" d="M66.489 505.884L66.856 507.083L65.022 505.915L64.34 507.114L64.13 505.505L63.109 505.568L63.135 507.145L62.663 506.041L60.2 505.851L60.384 504.746L59.44 504.968L61.144 503.389L60.908 503.075L61.746 502L63.03 503.674L66.358 502.79L66.489 505.884ZM93.218 481.797L94.109 481.132L93.637 479.992L91.226 478.281L90.545 476.509L89.628 476.826L90.257 475.717L87.82 476.509L86.483 474.988L87.244 474.323L86.511 473.245L80.745 471.44L80.614 473.912L81.61 474.45L80.117 477.364L79.279 476.698L79.2 477.902L77.968 478.314L79.069 479.517L77.182 479.674L76.815 480.718L77.549 481.542L76.421 482.08L75.924 479.802L74.194 483.156L68.953 486.036L69.896 487.743L69.24 487.176L68.114 487.619L66.385 490.717L69.084 495.271L71.417 494.481L71.706 495.271L70.684 495.712L71.077 496.314L70.134 497.545H71.784L71.653 496.818L72.414 496.596L73.331 498.208L75.584 498.271L78.231 497.292L77.576 496.027L78.807 496.564L79.725 495.679L80.327 496.343L81.219 495.142L82.843 495.269L82.974 493.15L84.468 493.941L86.04 493.119L85.227 492.139L86.118 491.76L86.93 492.456L86.563 491.254L87.716 492.108L87.48 490.305L88.869 492.045L88.503 492.772L89.734 492.803L89.708 491.127L92.512 487.965L91.804 486.32L93.115 484.643L91.909 484.294L91.935 483.44L93.43 483.029L94.006 483.883L93.954 482.27L93.218 481.797ZM51.552 454.95L52.6 454.792L51.342 452.887L51.395 451.426L56.426 450.76L56.767 449.426L57.92 449.267L57.657 446.439L55.64 446.757L54.671 448.663L53.439 448.409L53.648 449.044L52.442 449.774L48.459 449.17L48.879 450.377L48.066 450.759L47.935 450.218L47.542 450.981L48.119 451.679L47.385 454.95L50.242 456.759L52.365 456.156L51.552 454.95ZM130.875 502.757L128.805 502.031L126.996 498.272L127.075 495.459L126 494.258L122.619 492.426L118.557 494.386L118.505 499.503L119.212 500.168L118.714 501.052L120.68 501.463L123.51 505.063L125.056 504.463L127.546 505.726L127.362 503.643L128.542 505.126L131.319 505.631L129.93 503.769L130.875 502.757ZM55.378 456.664L54.408 454.282L54.251 456.092L53.02 456.029L52.915 458.028L51.945 457.457L52.207 456.854L50.111 457.298L49.901 460.248L50.504 461.898L51.63 461.105L51.579 462.214L52.417 462.722L53.701 461.706L53.596 463.261L54.565 463.578L56.06 462.912L56.086 461.833L57.579 460.818L57.737 459.771L58.811 460.057L59.283 458.851L55.378 456.664ZM122.62 517.653L119.266 515.507L118.612 517.053L117.72 516.958L119.528 519.008L117.458 521.119L117.405 522.727L118.113 524.366L119.476 523.578L119.345 525.185L120.341 525.657L121.231 524.618L121.1 522.003L122.202 522.381L122.464 521.31L121.153 521.277L120.079 518.631L122.071 518.378L122.62 517.653ZM115.361 512.795L112.61 512.259L112.086 512.984L111.614 511.596L110.199 511.659L111.43 513.331L110.539 513.426L110.276 514.183H111.246L110.12 514.846L110.513 516.107L109.596 516.517L111.195 516.927L111.142 518.094L113.71 518.63L112.374 517.085L114.365 516.58L114.261 517.494L116.147 517.463L114.915 515.54H116.724L116.121 513.804L115.361 512.795ZM112.897 518.945L112.295 519.955L111.797 518.851L110.408 519.135L108.862 517.527L105.587 520.018L105.508 522.477L106.347 524.43L107.736 524.493L112.4 521.814L112.636 520.269L113.763 519.669L114.915 521.688L114.968 520.017L116.199 521.404L116.67 519.545L115.569 519.892L112.897 518.945ZM59.807 474.102L60.776 473.976L61.327 472.677L61.93 473.658L63.738 473.152L64.105 471.979L63.686 470.869L62.978 471.504L63.214 469.507L61.774 469.951L60.936 468.682L61.722 466.558L60.674 466.812L60.831 466.019L58.971 466.464L59.573 467.891L59.049 470.426L59.862 469.982L60.464 470.553L59.809 471.155V474.102H59.807ZM83.522 438.843L82.762 440.656L79.958 439.765L79.486 441.577L82.788 442.594L84.36 440.719L87.505 441.069L87.872 441.927L89.156 441.356L90.544 443.263L88.841 444.342L89.286 445.01L91.042 445.55L91.225 444.597L92.72 444.374L92.771 440.686L91.697 441.132L91.723 439.861L88.604 440.178L87.635 439.352L88.657 438.874L87.582 438.143L88.735 437.953L88.788 436.713L91.199 436.872L91.173 435.886L89.732 434.645L87.478 434.836L86.167 433.181L84.596 434.231L86.666 437.19L85.643 437.827L84.465 437.222L84.256 438.845L84.964 439.48L83.863 439.863L83.522 438.843ZM70 455.552L71.415 455.425L72.044 458.441L74.821 457.87L75.11 456.093L73.302 452.029L71.52 452.697L69.816 450.474L68.087 451.013L66.278 450.091L65.938 451.299L65.282 451.331L65.728 452.76L64.863 454.887L66.907 453.681L67.011 454.697L67.667 454.411L67.299 456.285L68.478 456.126L69.16 456.887L70 455.552ZM75.425 465.671L75.74 464.15L72.7 461.803L71.73 462.12L71.101 463.674L70.315 463.103L70 464.056L68.821 464.15L69.083 465.166L70.079 464.532L70.655 465.26L69.608 466.878L70.316 468.494L72.359 467.924L72.831 466.973L74.508 467.542L75.137 466.497L76.657 466.339L76.945 465.133L75.425 465.671ZM73.774 415.826L73.905 416.527L74.874 416.24L74.325 417.005L76.211 417.388L76.631 416.782L77.469 417.834L79.25 417.676L80.22 418.281L79.8 419.937L80.717 420.127L81.582 421.721L82.997 421.848L83.966 419.937L82.814 419.204L82.42 416.782L81.005 415.794L81.503 413.054L80.979 412.415L79.59 413.309L79.196 412.256L77.231 412.607L76.235 411.364L75.188 411.588L72.907 412.959L73.667 414.745L73.774 415.826ZM65.073 441.323L63.501 441.609L66.541 445.455L66.909 447.52L69.11 447.169L69.608 445.771L68.691 444.12L69.477 442.975L70.603 443.484L72.202 442.245L70.472 441.133L70.446 440.338L72.281 440.401L72.883 439.606L71.494 437.793L71.023 438.557L68.822 437.666L68.245 438.047L68.402 439.828L69.293 440.558L68.795 441.48L65.703 440.368L65.073 441.323ZM73.145 424.428L73.774 422.548L70 421.179L67.223 424.141L73.145 424.428ZM55.85 439.829L61.038 440.369L62.086 442.214L61.903 440.432L62.663 440.211L62.873 440.973L64.313 440.528L63.973 439.734L65.939 439.83L65.335 438.399L67.248 437.477L65.807 435.982L67.326 434.583L65.911 434.359L66.619 433.151L65.388 433.437L65.493 432.132L63.396 431.272L63.79 433.437L63.213 434.391L62.191 434.582L61.773 433.469L61.117 434.677L59.308 434.327L57.107 438.524L54.985 438.557L56.373 439.447L55.85 439.829ZM63.475 416.876L63.658 416.526L65.231 416.27V417.864L67.588 418.82L67.615 417.258L69.136 417.354L68.323 415.825L69.554 415.601L67.772 413.848L68.087 412.35L69.266 412.318L69.581 409.223L73.407 407.565L68.769 407.789L68.664 408.874L65.86 411.84L62.663 412.413L61.981 414.678L63.553 415.602L63.239 416.462L61.562 416.208L62.611 417.259L63.475 416.876ZM5.327 460.439L3.99 459.71L5.274 458.662L2.182 459.233L2.235 460.47L0.163999 463.388L1.239 464.403L0.00799942 465.006L0.950999 466.654L2.523 467.224L2.444 465.543L4.069 464.847L3.519 463.261L5.406 462.785L5.642 460.723L7.502 460.088L6.481 459.041L5.327 460.439ZM143.583 517.337L144.082 516.139L143.296 515.255L144.004 514.057L142.116 513.521L140.256 514.373L140.073 515.194L138.894 515.507L138.92 518.031L137.925 518.377L139.078 518.913L138.082 519.796L138.79 521.182L139.969 519.417L141.07 521.276L142.852 520.583L143.638 521.182L144.66 520.269L144.791 516.991L143.583 517.337ZM226.418 437.284L226.287 433.849L224.583 432.163L221.884 432.099L222.146 430.38L221.36 429.745L218.792 432.321L218.845 434.326L224.19 435.535L224.688 436.234L224.4 433.531L225.343 433.179L226.285 437.09L226.418 437.284ZM226.864 471.79L228.41 471.186L228.567 470.332L226.707 469.095L227.022 466.941L227.86 466.592L227.677 463.705L228.411 462.976L227.389 463.102L227.938 462.373L226.392 461.992L225.607 460.755L225.895 458.883L224.611 459.233L223.955 458.155L224.532 457.393L225.371 458.059L225.528 458.344L226.839 458.661L226.603 456.663L222.095 454.726L222.777 456.979L223.904 457.138L223.72 459.676L225.161 460.373L223.379 460.69L222.881 462.149L220.601 463.64L220.025 465.067L220.68 466.017L219.343 467.538L221.885 468.712L223.038 470.866L224.479 470.772L226.864 471.79ZM218.426 455.901L216.329 454.632L216.67 453.964L214.914 452.886L214.966 452.156L214.363 452.315L214.546 453.331L212.293 456.378L213.001 457.819L211.455 457.267V456.441L211.036 457.744H210.303L211.614 459.013L211.194 460.028L212.583 460.377L211.037 461.044L212.348 463.264L211.693 463.772L213.003 464.279L211.798 465.737L212.82 465.769L213.239 466.911L211.247 466.625L210.278 465.009L207.867 464.027L206.661 464.407L207.107 466.562L204.329 462.472L205.508 461.298L204.407 460.949L204.46 459.362L206.818 458.474L205.535 458.411V457.586L204.513 458.539L204.879 457.015L204.067 457.111L205.535 455.841L205.299 454.92L205.928 455.396L206.976 454.826L207.317 453.398L209.23 453.46L207.422 452.858L208.051 452.031L207.369 450.698L206.374 451.778L206.348 450.19L205.063 449.809L206.426 449.079L205.063 447.649L204.932 446.346L201.814 446.123L201.998 444.503L203.597 442.342L201.946 442.087L201.16 438.081L198.618 438.781L198.803 441.833L198.199 442.596L196.418 442.057L194.085 442.978L193.614 441.611L193.194 442.978L189.841 444.312L188.556 442.978L186.224 442.882L188.451 444.059L189.369 445.52L192.723 445.552L189.631 447.554L188.844 449.555L186.905 449.459L190.338 450.697L189.945 451.936L187.56 453.808L189.106 457.204L192.382 459.489L193.194 460.821L192.749 461.519L194.583 461.55L194.348 462.914L195.553 462.09L195.5 462.914L196.444 463.009L195.972 461.931L197.439 461.804L197.046 463.802L198.591 464.31L198.566 465.198L197.387 464.533L197.046 465.356L196.129 464.405L195.658 464.848L196.496 465.768L199.274 466.371L200.087 470.618L198.383 472.044L198.331 473.026L195.894 472.234L195.5 470.966L194.269 472.646L193.273 471.346L191.807 471.98L190.889 471.061L186.932 471.632L186.984 472.296L189.342 472.107L189.578 473.058L190.888 472.265L190.495 473.628L188.294 474.008L188.111 475.085L190.076 474.515L192.329 474.894L191.7 475.464L193.062 475.149L193.508 477.428L192.25 477.871L192.878 480.056L190.808 479.169L190.468 480.848L189.053 480.246L188.004 480.973L189.131 482.399L188.895 483.317L188.003 482.841L187.165 483.632L185.828 482.335L185.357 483.948L184.728 483.285L183.077 484.107L184.204 485.12L182.527 485.309L184.204 486.258L184.466 487.27L183.34 488.093L181.138 487.239L181.165 486.606L182.265 486.636L181.557 485.657L180.377 485.625L180.718 484.771L177.678 483.537L179.093 481.606L176.341 478.98L175.372 479.011L175.346 479.739L174.167 479.359L174.376 478.568L171.991 476.478L172.071 479.074L169.554 477.365L168.716 479.105L168.218 478.441L165.283 478.79L163.816 477.998L163.894 476.763L162.951 476.13L163.423 474.197L166.044 471.79L166.384 469.92L167.327 470.997L168.559 470.617L168.611 467.035L171.153 464.5L173.826 463.833L174.245 461.359L175.346 460.281L174.952 458.631L177.179 456.664L177.861 457.203L178.83 456.41L179.328 459.171L178.595 461.581L179.355 462.375L182.028 462.629L183.731 457.712L184.857 457.362L183.705 456.823L183.076 452.664L181.033 452.918L179.906 455.108L177.94 453.871L177.18 455.013L175.451 451.711L173.905 452.061L169.659 459.298L165.807 459.426L164.497 458.219L161.562 461.867L158.627 462.946L156.844 465.894L154.093 467.162L151.814 467.352L151.787 468.304L153.177 469.063L152.155 469.507L151.5 472.074L150.425 473.024L151.368 473.721L152.993 473.404L152.862 474.892L151.264 474.417L151.289 476.888L149.743 476.508L148.59 477.806L150.241 479.833L149.297 480.339L148.93 481.891L150.424 483.979L148.38 484.802L146.991 483.219L146.415 484.042L147.385 486.352L146.545 487.396L144.895 486.606L140.177 486.416L141.698 488.883L141.541 490.337L140.336 488.535L137.741 486.954L135.199 487.301L133.915 486.384L134.204 484.991L132.161 484.928L133.182 483.695L132.239 479.865L133.288 475.938L132.632 475.431L133.051 473.721L132.187 472.707L132.422 471.534L131.4 470.615L132.238 465.449L130.692 468.176L130.089 477.584L130.639 478.218L129.591 478.883L130.273 481.51L127.731 483.061L128.517 484.612L126.316 487.902L123.958 488.187L121.625 489.61L121.546 490.559L120.734 489.736L119.371 490.212L118.847 491.697L117.878 491.444L117.328 492.488L116.777 491.919L116.175 492.709L116.672 493.277L115.73 494.447L116.568 495.175L116.515 497.514L114.812 498.587L115.415 499.094L114.628 500.105L115.152 502.473L110.881 501.621L109.387 503.83L107.946 504.084L107.605 505.094L106.74 504.779L107.002 502.569L106.347 502.032L107.736 500.357L107.133 497.294L105.692 496.661L102.521 498.683L101.918 497.608L102.232 496.945L103.149 497.799L102.939 496.788L103.909 496.882L102.651 494.67L105.036 494.259L103.961 491.824L105.638 492.741L106.713 491.097L106.005 488.283L104.879 489.2L103.595 488.916V489.896L100.973 487.46L101.812 486.606L102.179 486.352L102.337 484.706L101.708 484.959L100.973 484.01L101.97 483.283L101.053 481.225L102.389 480.402L101.603 479.041L99.69 478.883L101.892 477.204L101.578 476.381L99.535 477.015L99.508 475.431L97.228 474.64L97.437 475.843L95.943 476.096L95.969 477.047L94.528 477.742L93.742 476.951L94.659 474.607L92.457 474.512L89.602 473.086L87.61 473.782L86.667 472.642L87.532 471.628L84.361 470.454L84.466 467.507L85.697 466.492L85.278 465.923L84.832 466.556L83.653 466.271L82.473 465.129L82.028 460.943L82.788 460.245L82.631 457.802L83.207 458.247L83.889 457.137L84.936 451.994L86.247 451.454L87.295 452.438L86.98 453.167L88.239 453.04L89.234 456.279L90.991 457.675L89.444 458.976L89.602 461.735L88.894 462.719L91.435 464.146L91.331 467.031L92.641 467.665L92.903 469.504L93.925 468.015L100.66 472.072L100.477 471.184L103.359 469.727L103.804 468.585L102.939 468.046L100.922 469.028L100.476 466.143L99.296 467.317L98.484 464.876L97.435 465.129L97.933 463.291L97.199 463.227L97.252 462.403L96.388 462.435L96.074 463.67L94.685 464.59L93.61 463.64L95.256 461.672L94.554 459.262L95.681 460.183L96.153 459.77L95.419 457.994L94.371 457.803L95.419 456.852L97.227 460.342L98.878 458.439L99.376 459.042L99.926 458.09L101.053 458.756L98.485 462.341L99.611 463.61L100.581 463.229L100.555 464.118L102.179 465.323L106.111 465.83L107.683 467.193L108.68 465.861L107.369 465.481L107.5 464.085L109.702 464.308L110.015 465.196L113.265 466.591L116.802 466.433L113.999 465.577L110.985 463.357L111.22 460.693L108.836 460.566L107.657 457.647L104.984 454.473L102.52 454.219L101.08 455.33L100.346 453.68L98.642 454.219L97.069 453.14L94.659 454.981L92.326 454.124L93.951 452.568L93.742 451.012L94.895 450.568L94.816 449.234L92.825 449.362L92.117 447.195L95.104 442.943L96.912 442.244L95.313 439.352L95.942 438.047L94.658 437.697L94.946 435.725H95.784L96.229 434.453L94.762 432.576L95.418 431.844L94.632 430.635L95.156 428.407L94.003 427.642L93.085 424.396L92.771 427.165L91.906 427.865L91.985 428.63L93.4 429.235L92.509 430.667L93.269 431.177L92.561 432.035L92.954 432.958L90.464 434.008L89.102 433.849L88.866 432.227L86.954 432.481L86.771 431.749L88.264 430.699L85.828 428.184L87.452 425.637L87.164 427.038L88.107 426.37L88.919 428.058L90.806 427.102L91.749 425.064L89.889 424.65L94.789 421.497L94.711 420.001L93.819 418.885L91.198 419.713L90.936 417.675L89.285 417.26L90.543 416.303L89.39 414.136L88.054 414.105L87.923 414.837L86.56 413.881L87.766 416.112L86.403 417.164L87.661 418.057L86.377 419.267L84.909 417.197L82.839 418.185L82.236 415.189L81.215 414.519L81.634 413.244L83.285 413.116L81.083 410.692L81.896 408.779L82.656 409.089L82.393 407.791L83.861 406.897L84.569 408.811L85.617 407.982L86.979 408.396L87.058 409.64L88.343 409.576L89.26 407.95L88.657 407.183H89.627L90.702 405.907L90.754 408.461L90.072 410.789L89.312 411.012L89.182 413.468L90.387 413.692L91.278 412.671L90.57 415.317L91.801 415.732L92.535 415.158L92.744 417.102L94.972 414.36L94.317 416.625L95.444 415.445L96.441 416.974L94.894 419.237L95.864 419.205L95.968 421.055L98.195 420.991L97.619 419.238L99.716 417.836L101.157 415.541L99.087 414.586L101.183 413.916L101.838 412.736L97.775 412.003L94.159 406.197L91.984 404.953L92.273 403.613L91.277 403.134L92.901 402.591L93.583 400.037L89.495 400.898L87.923 400.1L87.661 398.376L86.298 397.258L87.399 395.181L88.734 398.024L90.098 396.651L89.547 395.661L91.146 393.489L90.858 392.785L89.102 392.817L89.836 391.507L92.954 391.539L93.688 386.264L95.444 381.819L100.134 383.386L96.676 381.018L95.916 378.619L96.361 376.282L97.829 374.873L102.311 374.639L104.179 375.261L106.048 376.818L106.983 382.424L108.851 384.604L110.097 388.652H111.805L112.18 390.349L116.522 390.118L117.97 388.578L120.064 388.466L121.028 388.893L123.098 388.185L124.625 386.692L127.759 385.73L130.167 384.512L130.79 381.547L130.53 380.777L132.131 379.15L132.568 375.384L133.36 373.399L135.622 372.42L137.146 372.774L138.228 372.989L139.793 371.127L142.811 371.732L146.846 374.716L150.396 380.371L152.364 380.938L153.385 380.246L154.054 377.149L155.051 376.508L156.031 374.725L158.541 374.801L159.889 375.839L160.345 380.244L159.285 382.551L161.361 383.219L162.369 386.09L161.95 389.694L164.536 391.666L166.631 392.203L169.658 391.118L170.62 390.22L171.918 389.386L175.066 390.739L176.993 389.62L178.43 390.99L179.555 391.644L185.696 391.625L188.074 390.928L191.262 391.29L193.009 390.828L195.954 387.041L197.706 386.06L199.698 385.951L204.232 388.026L210.596 392.479L209.797 394.734L212.451 397.715L213.356 406.915L219.909 413.361L220.102 416.257L221.193 417.3L224.748 421.092L226.489 422.418L228.721 430.636L225.942 430.542L224.58 427.58L221.619 429.236L221.566 426.339L220.151 424.301L221.278 429.49L219.496 431.591L217.478 432.355L217.767 433.787L214.57 435.313L213.627 436.681L212.683 435.472L213.129 434.9L211.059 435.122L209.538 432.864L209.696 430.414L208.988 429.746L208.857 432.736L206.891 433.277L209.329 435.154L208.83 435.95L208.437 436.139L206.524 436.936L207.965 437.477L209.537 441.228L212.42 441.895L211.477 443.199L212.63 444.63L212.656 443.517L214.962 444.311L217.504 442.532L218.421 441.007L218.526 440.721L221.696 439.767L220.752 440.626L222.508 441.325L222.378 440.561L224.684 439.735L226.021 441.07L225.182 441.261L224.893 447.14L224.002 447.076L222.665 449.681L223.635 454.221H221.643L221.381 455.332L218.426 455.901ZM151.705 403.705L150.687 399.174L148.75 396.839L146.924 395.971L144.491 395.884L140.058 397.883L138.059 399.968L136.581 400.055L133.018 397.968L132.41 395.796L130.237 395.709L128.151 401.011L125.805 400.924L124.067 403.01L122.937 407.79L123.372 411.876L130.585 412.917L134.323 419.002H138.06L141.45 417.003H145.274L146.752 415.96L149.88 416.568L153.27 414.221L154.661 412.397L156.399 406.312V404.921L154.313 403.965L151.705 403.705ZM201.471 486.669L200.055 484.391L200.004 485.531L199.321 485.12L198.876 486.132L197.959 486.101L198.614 485.279L196.937 485.436L195.181 484.266L195.574 486.828L194.762 487.304L196.963 486.797L197.959 487.399L197.75 488.032L195.89 487.81L197.096 489.076H198.772L198.222 490.815L198.721 491.511L201.42 489.802L202.415 490.277L203.176 489.329L203.071 487.272L201.471 486.669ZM224.714 480.246L226.103 479.739L224.269 477.491L223.719 475.338L222.015 475.369L219.473 477.111L218.058 476.985L220.232 478.758L221.491 478.346L220.757 479.518L222.251 480.214L221.648 481.1L223.482 480.911L223.457 481.544L225.107 481.829L224.242 482.399L226.941 482.904L227.701 481.734L224.714 480.246ZM220.994 436.648L220.051 435.821L218.295 436.49L217.613 437.667L218.557 438.398L218.085 438.843L220.338 439.415L221.256 437.508L222.828 437.125L222.487 436.554L220.994 436.648ZM131.53 494.86L130.22 497.451L131.608 498.273L131.635 496.377L132.709 494.923L135.251 494.827L135.802 492.867L138.108 494.1L139.654 494.004L139.732 493.183H139.024L138.867 491.824L138.055 491.951L138.264 490.717L137.164 491.54L135.749 490.528L137.531 490.432L137.819 489.453L136.693 489.168L136.613 487.776L132.368 489.009L130.14 491.571L130.481 492.931L128.777 495.174L131.53 494.86ZM196.597 482.936L198.038 483.253L198.431 482.556L199.008 483.253L200.134 482.429L198.745 480.468L195.862 480.245L196.019 479.454L197.225 479.834L195.705 478.061L197.539 477.269L197.068 476.351L195.547 476.192L193.32 479.074L195.364 480.119L194.946 480.657L195.601 481.1L193.924 482.144L194.867 483.696L195.889 483.854L196.597 482.936ZM228.043 486.795L228.357 485.784L227.283 486.352L227.571 487.239L226.418 489.453L227.911 489.199L226.444 490.844L226.706 491.382L227.571 490.907L227.676 491.728L228.383 491.76L229.353 486.733L228.645 487.207L228.043 486.795ZM149.455 499.726L148.302 501.084L148.564 503.199L149.114 502.82L149.926 504.084L153.936 501.494L153.806 500.578L152.233 499.725L149.455 499.726ZM139.785 502.6L139.732 501.653L140.256 503.105L141.331 503.075L141.095 500.737L142.589 500.579L142.693 499.063L141.016 499.978L140.308 498.526L138.867 498.935L138.736 498.273L138.055 499.125L136.561 497.515L135.198 498.811L135.329 499.852L134.098 500.358L132.499 498.936L131.111 500.201L128.936 500.075L131.661 501.054L132.867 502.444L134.308 501.054L136.169 501.181L137.374 504.307L138.685 503.107L139.785 502.6ZM160.434 497.609L159.543 497.134L156.634 498.399L156.687 496.439L155.141 494.986L154.931 495.871H153.306L153.935 496.503L153.044 496.566V497.704L150.921 497.389L153.044 498.621L153.752 497.892L155.088 498.746L155.428 499.536L154.013 499.85L155.166 500.514L157.21 499.567L157.34 500.294L155.768 501.399L156.187 503.23L157.838 500.452L159.856 499.946L158.153 499.662L158.703 498.778L162.005 499.914L160.118 498.178L160.434 497.609ZM144.161 493.785L143.558 492.458L142.903 493.058L142.431 492.363L142.274 493.28L141.278 492.015L140.517 492.805L140.466 491.921L139.601 491.51L139.287 492.141L140.23 493.501L139.444 495.871L140.125 496.439L141.461 495.839L141.776 497.45L143.558 498.145L145.183 497.356L145.576 496.186L147.385 496.533L146.729 494.574L147.751 492.457L147.201 491.35L145.969 493.848L144.161 493.785ZM175.266 510.018L175.24 511.186L174.323 511.281L173.615 514.057L175.083 513.395L176.76 514.248L175.947 513.048L177.048 512.765L176.708 509.703L175.266 510.018ZM172.672 481.922L171.283 482.778L169.265 482.492L165.78 484.517L164.444 483.883L164.025 482.459L163.238 482.522L163.081 484.136L161.089 484.801L162.347 486.54L161.691 487.933L163.316 487.3L163.237 488.375L165.752 490.494L166.329 489.261L167.797 489.546L168.006 488.786L172.041 489.418L174.505 484.136L172.672 481.922ZM154.485 486.48L155.586 487.144L155.927 490.338L156.739 491.128L157.342 490.813L157.08 489.548L158.128 489.8L158.259 492.583L159.438 489.453L158.52 486.922L157.551 486.1L157.158 486.859L156.556 485.91L154.485 486.48Z" fill="#CCCCCC" stroke="white" stroke-width="0.5"/>
<path id="KR-48" class="land" d="M239.867 325.282L241.956 325.665L242.662 326.029L242.97 328.633L243.913 329.196L247.825 329.739L249.557 331.499L256.538 332.018L258.026 332.768L260.057 334.252L260.836 337.121L261.495 337.615L263.556 338.602L263.984 340.362L266.5 341.852L267.44 343.639L265.383 349.808L265.116 351.464L266 353.096L269.795 354.584L273.225 353.97L276.176 352.883L280.658 354.237L282.893 356.414L284.6 357.658L287.008 357.6L290.492 355.107L292.012 354.732L294.427 355.623L295.773 354.707L297.086 350.447L298.358 350.242L299.048 351.519L298.581 354.563L300.262 358.223L304.699 361.691L310.567 360.587L317.994 363.327L319.912 363.9L325.413 360.075L326.424 360.372L331.378 356.23L333.478 356.272L336.403 357.142L340.1 358.71L341.058 358.357L341.827 357.567L343.293 359.989V361.455L342.095 362.502L339.868 364.387L340.21 369.202L342.437 370.249H345.176L347.572 370.457L350.825 373.805L356.474 379.661L359.555 379.87L360.82 381.414L357.877 384.119L357.305 385.977L352.447 386.548L348.847 393.173L347.014 392.857L343.071 395.333L339.017 400.266L334.874 400.409L331.017 402.837L328.73 403.124L328.301 408.123L321.386 410.732L319.579 412.955L318.608 412.222L318.765 413.466L316.513 412.797L315.385 413.849L315.018 413.116L314.152 413.307L314.101 412.382L312.869 412.351L312.267 413.18L311.559 412.446L313.053 410.246L312.449 408.428L311.585 408.141L311.794 407.152L310.118 407.951L310.641 409.705L309.461 410.662L309.12 409.13L307.339 408.398L307.627 407.058L305.792 407.376L305.373 409.099L304.745 408.27L303.905 408.526L304.665 407.441L304.194 405.558L302.673 404.473L302.463 401.248L306.394 398.886L302.201 400.228L300 402.813L301.39 404.409L301.102 405.717L302.227 405.846L303.171 407.952L300.996 408.494L300.866 409.195L303.38 409.131L303.433 412.513L305.871 414.457L303.617 415.095L304.403 416.051L305.767 415.733L306.632 416.433L300.708 418.187L302.125 417.041L301.705 416.816L299.74 416.626L300.316 417.996L299.111 418.155L297.827 416.339L300.054 416.181L299.74 414.969L301.6 413.853L297.827 412.706L298.43 411.972L297.565 411.941L297.486 410.505L296.463 412.323L294.918 412.96L292.403 411.781L292.507 412.609L291.485 413.024L289.206 412.131L288.996 413.184L291.957 415.288L290.883 414.903L290.465 415.861L288.367 416.051L287.057 417.995H285.904L285.562 417.102L282.838 419.014L282.078 418.601L282.786 420.193L281.555 420.672L280.584 423.092L283.311 422.01L283.416 420.257L284.909 419.365L288.971 418.345L288.787 416.337L289.575 416.146L289.968 416.974L290.937 415.54L292.196 416.847L292.144 418.058L291.882 418.951L290.099 418.887L292.116 419.557L292.09 420.958L294.056 422.456L293.138 423.697L292.3 423.156L291.697 425.098L290.413 424.589L290.361 425.608L285.172 424.812L285.198 426.246L287.138 425.831L288.343 426.214L288.579 427.265L286.639 429.206L287.215 429.46L286.797 431.148L287.793 432.039L286.116 434.553L286.903 435.316L286.299 436.08L286.482 438.847L288.842 435.604L288.238 434.141L289.47 434.045L290.571 436.559L291.541 436.813L290.781 439.101L289.732 437.767V439.706L288.868 439.578L289.366 441.836L285.435 443.202L288.186 443.837L288.422 444.76L288.395 446.824L287.401 446.983L288.213 447.841L286.326 448.126L287.846 449.333L286.693 451.556L284.204 451.175L284.125 449.492L283.313 449.873L283.6 448.697L282.761 447.49L282.133 448.444L281.006 447.68L282.499 446.727L282.447 445.457L279.461 444.249L278.412 445.202L277.836 444.154L278.753 443.741L278.517 442.311L279.172 443.422L280.117 442.246L281.19 443.676L281.819 443.136L283.051 445.647L282.866 443.899L283.862 444.217L284.805 443.454L283.706 443.772L282.92 443.199L283.338 442.341L282.028 442.436L281.66 441.293L283.389 439.925L286.299 440.052L285.958 439.448H283.153L282.603 437.094L282.315 437.794L281.529 437.38L281.817 439.257L280.245 438.939L279.773 437.253L279.563 438.812L278.908 437.794L277.624 438.493L277.598 437.253L276.524 438.048L274.742 435.345L276.131 434.645L280.192 434.773L278.804 430.16L277.783 430.35L277.991 429.269L276.681 428.631L276.969 430.636L274.95 431.528L275.423 433.596L274.008 434.614L273.301 433.882L273.327 435.282L271.781 434.359L271.806 431.146L270.155 430.891L269.842 430.732L268.217 431.05L267.639 430.446L267.221 431.272L265.203 431.463L265.99 432.735L265.806 436.426L263.919 436.267L263.264 434.868L263.056 436.076H262.322L261.641 434.868L260.041 435.44L259.177 437L258.182 435.153L257.133 435.409L256.4 434.39L258.078 433.085L253.833 433.022L250.399 431.082L249.456 429.045L251.632 426.722L250.294 424.651L251.316 422.327L250.897 421.531L250.163 422.168L250.006 421.658L251.29 416.21L252.443 415.222L251.814 414.902L249.795 416.432L248.616 421.085L247.201 420.353L248.379 419.714L248.143 419.014L247.411 419.874L245.366 418.95L244.475 420.288L246.389 419.937L247.384 422.741L248.511 422.996L247.462 426.34L246.493 424.748L245.025 426.85L243.898 424.684L241.724 426.149L242.221 427.008L240.728 426.467L241.095 425.64L240.23 425.226L240.99 425.002L241.069 423.761L239.523 422.327L238.92 426.148H238L238.394 427.39L237.397 427.517L237.083 428.854L235.25 430.192L232.315 430.382L232.079 428.854L231.502 429.237L230.951 428.377L230.533 430.478L228.815 430.224L228.726 430.637L226.494 422.419L224.753 421.093L221.198 417.301L220.107 416.258L219.913 413.362L213.361 406.916L212.456 397.716L209.802 394.735L210.601 392.48L210.83 392.276L213.041 389.976L212.492 387.114L213.647 383.973L217.342 380.412L217.797 376.412L216.168 375.985L215.479 374.061L216.164 370.727L214.896 368.46L214.474 365.559L211.707 364.189L211.537 361.877L216.748 347.496L217.639 346.7L217.794 344.788L218.574 339.975L223.503 335.247L225.158 331.179L225.807 330.707L227.819 331.145L229.642 329.998L231.1 329.989L234.199 328.108L236.242 323.496L238.562 321.985L238.69 323.919L239.867 325.282ZM325.027 416.559L325.526 417.993L326.547 417.707L327.019 419.459L325.394 422.868L326.049 423.663L324.739 425.51L325.001 424.907L323.899 423.95L324.713 422.74L322.668 421.848L323.61 421.052L321.828 418.056L325.027 416.559ZM311.925 420.701L312.633 420.064L313.944 420.574L314.836 422.04L313.971 423.695L312.923 423.599L313.421 424.65L312.058 424.714L312.844 425.224L312.45 427.453L314.388 428.376L315.359 431.304L314.495 431.21L315.045 434.137L313.786 434.359L314.415 435.663L312.424 436.809L312.371 437.858L313.813 438.144L313.708 439.035L315.567 436.809L316.538 437.38L316.434 438.112L316.88 439.352L316.224 440.05L315.019 439.765L316.171 442.15L315.045 442.434L314.469 441.45L312.869 442.499L313.524 443.93L314.388 442.912L315.122 443.453L314.519 444.533L316.537 448.663L313.653 447.806L314.205 447.012L313.446 445.646L312.292 447.552L311.611 447.361L311.82 446.123L309.751 445.678L309.515 447.966L310.223 448.823L308.782 450.093L307.602 449.649L306.869 451.427L308.256 453.809L310.955 453.999L310.484 455.395L308.545 454.062L306.055 455.078L305.873 454.38L305.401 455.142L307.052 456.57L306.894 457.491L305.688 457.015L304.195 458.474L302.387 457.554L301.103 458.315L301.889 456.031L303.959 455.048L301.129 453.936L301.337 451.493L303.381 451.334L302.518 450.571L303.015 449.714L300.893 449.651L299.661 451.048L298.823 449.969L300.238 448.572L299.242 448.413L297.852 449.97L298.089 448.922L297.434 448.54L301.81 447.364L301.836 445.077L302.807 443.457L302.099 443.647L301.104 442.121L302.152 442.438L302.178 441.74L300.737 440.914L299.924 443.393L296.623 443.361L296.518 444.728L295.758 444.474L296.125 445.395L294.867 446.126L293.924 444.441L294.605 443.584L292.142 442.503L291.251 438.783L293.137 435.635L293.95 435.572L293.557 434.872L294.369 435.222L293.897 434.427L295.338 434.617L296.255 433.058L300.107 435.858L301.024 435.699L300.475 434.776L301.915 434.012L305.637 436.619L305.06 433.789L304.065 434.076L304.327 433.025L301.916 430.766L303.803 427.678L303.776 429.047L306.372 428.697L306.344 428.06L307.969 429.11L307.813 427.455L308.886 426.341L308.336 425.609L309.384 425.354L308.886 424.558L309.961 424.431L310.224 424.144L310.956 423.412L309.646 423.539L310.406 420.546L311.298 420.418L311.925 420.701ZM307.941 421.72L308.414 422.963L307.601 426.561L305.872 426.943L305.373 426.244L304.221 427.326L304.429 425.926L305.792 425.097L304.901 424.332L306.473 424.301L306.238 423.187L307.941 421.72ZM236.638 430.349L238.84 431.621L239.023 430.826L239.652 431.112V436.679L237.425 437.507L237.084 439L238.709 441.671L238.132 442.593L241.303 444.024L241.46 446.153L243.164 446.407L242.823 445.549L245.758 443.484L249.48 443.198L250.947 444.596L252.362 444.692L252.834 447.011L251.655 447.074L252.126 448.027L251.365 449.234L252.23 452.758L249.899 455.775L252.388 457.551L248.51 458.375L249.164 456.439L248.222 455.836L247.435 456.122L247.513 457.201L245.993 457.011L245.653 456.186L245.18 457.614L242.612 457.551L241.38 453.267L242.01 449.742L237.659 451.076L238.367 454.76L236.244 456.092L233.256 455.457L233.675 454.728L232.601 454.316L232.785 453.109L231.291 453.013L231.659 450.886L232.732 450.631L231.029 447.677L231.264 446.247L229.089 443.355L228.513 440.526L229.561 438.556L230.531 438.492L230.609 436.362L231.789 434.963L232.182 435.567L233.832 435.343L232.862 434.072L232.967 432.512L234.042 432.13L234.461 430.889L236.638 430.349ZM249.557 433.119L247.644 439.478L248.928 439.765L248.797 437.698L250.109 435.949L251.103 436.076L251.313 437.667L251.917 437.412L252.991 438.717L252.86 440.115L251.76 441.164L252.518 440.847L252.388 442.023H253.83L254.904 443.961L253.541 443.104L252.808 443.708L251.838 442.755L251.052 443.072L248.772 441.547L248.458 442.755L247.069 443.072L243.793 442.182L243.243 438.971L244.553 438.144L246.545 434.391L249.557 433.119ZM265.596 440.242L268.66 442.022L266.172 442.245L264.153 444.279L264.021 442.975L262.738 442.658L262.45 441.323L265.596 440.242ZM269.053 442.434L271.805 445.294L271.255 446.089L269.238 445.899L269.5 447.773L265.49 445.073L265.647 444.279L266.852 444.661L266.197 444.057L267.062 442.818L269.053 442.434ZM292.403 445.105L291.799 445.803H292.691L293.24 449.235L294.447 448.981L294.997 449.806L294.682 450.981L292.797 452.092L290.805 451.648L291.381 450.505L290.044 448.726L290.281 446.439L290.753 448.217L291.513 447.837L291.355 446.788L290.647 445.93L290.935 445.105H292.403ZM269.841 463.96L272.697 465.514L271.701 466.211L272.645 467.162L273.588 465.514L274.923 465.483L274.007 467.765L271.517 466.91L269.762 467.829L269.604 468.748L268.713 468.589L268.451 468.019L269.578 467.323L268.791 466.752L269.053 465.991L268.189 466.498L267.743 465.769L268.845 465.389L268.163 464.406L269.841 463.96Z" fill="#CCCCCC" stroke="white" stroke-width="0.5"/>
<path id="KR-49" class="land" d="M148.17 591.747L148.851 592.528L148.406 593.124L149.848 593.029L149.166 595.938L147.096 595.438L146.651 593.999L148.17 591.747ZM143.558 606.847L140.413 609.126L139.941 611.152L137.478 613.623L137.635 615.059L136.325 616.527L131.267 616.433L128.149 619.678L119.161 620.8L116.41 623.733L114.602 624.419L113.606 623.515L111.903 623.452L111.379 624.731L109.911 623.858L107.762 624.045L102.469 625.697L100.634 623.858L98.302 624.481L96.441 623.482L93.139 624.98L88.92 623.858L85.828 625.884L85.854 628.845L84.466 628.347L83.522 628.97L82.631 628.378L82.867 627.256L82.028 627.225L79.906 624.356L75.031 621.518L73.197 618.524L73.773 615.216L73.197 613.404L74.979 611.936L75.005 610.532L77.757 608.752L78.936 606.94L80.142 607.128L82.317 604.628L82.762 601.815L86.956 600.127L87.401 598.157L92.772 597.125L94.423 595.78L95.603 596.53L103.491 593.466L104.565 592.245L106.584 592.841L108.994 591.87L113.292 591.776L114.078 590.618L117.772 590.368L118.874 588.365L120.761 589.868L121.861 588.74L126.5 587.833L129.67 588.208L129.906 587.27L133.234 588.397L135.986 587.896L137.296 590.901L139.051 591.839L140.047 591.214L143.297 592.245L142.878 593.558H143.9L144.241 594.497L143.087 596.655L144.896 598.093L146.232 597.593L147.306 599.281L146.834 599.844L145.838 599.189L145.026 600.408L144.921 601.439L146.415 602.533L145.681 603.409L144.45 602.096L143.558 606.847Z" fill="#CCCCCC" stroke="white" stroke-width="0.5"/>
<path id="KR-50" class="land" d="M175.795 231.423L173.104 229.809L171.625 228.194L169.069 227.387L166.378 228.464L165.975 230.213L167.05 232.23L167.589 234.248L167.858 237.343L167.186 239.764L167.454 243.127L167.589 246.625V249.72L166.512 252.141L166.647 254.16L168.53 256.715L171.221 258.196L172.566 262.097L172.835 264.922L172.701 268.958L173.912 272.052L175.661 273.398L177.363 275.45L179.543 272.957L179.232 264.238L186.083 262.058L187.037 255.941L186.421 255.081L185.315 255.262L184.738 256.043L186.6 249.957L185.522 248.817L186.44 245.542L183.107 245.346L182.657 243.997V241.194L179.854 237.768L182.035 237.145L182.346 234.342L180.789 232.163L178.351 232.365L175.795 231.423Z" fill="#CCCCCC" stroke="white" stroke-width="0.5"/>
</svg>
